<?xml version="1.0" encoding="UTF-8" standalone="no"?>
<!DOCTYPE svg PUBLIC "-//W3C//DTD SVG 1.0//EN" "http://www.w3.org/TR/2001/REC-SVG-20010904/DTD/svg10.dtd">
<!-- lookup['146.231.126.7:Alice'] = 0 -->
<!-- lookup['172.17.0.3:Local-Kamailio'] = 1 -->
<!-- lookup['146.231.121.130:Extern-Kamailio'] = 2 -->
<!-- lookup['146.231.126.7:Bob'] = 3 -->
<svg xmlns="http://www.w3.org/2000/svg" width="800" height="940" viewBox="0 0 800 940">
<defs>
<style type="text/css"><![CDATA[
 .traceline { stroke-width: 1pt; stroke:black; }
 .pkt-text { color: red; font-family: Trebuchet MS,Helvetica, sans-serif;
            font-size: 8pt; stroke: none; fill: black;}
 .comment-text { color: black; font-family: Trebuchet MS,Helvetica, sans-serif;
            font-size: 9pt; font-style: italic; stroke: none; fill: green;}
 .host-text { color: black; font-family: Trebuchet MS,Helvetica,sans-serif;
             font-size: 10pt; stroke:none; fill:blue;}
 .title-text { color: black; font-family: Trebuchet MS,Helvetica,sans-serif;
              font-size:16pt; stroke:none; fill:black;}
 .label { color: blue; text-anchor: middle ; }
 .arrowhead { stroke-width: 0.5pt;stroke:black; }
 .element-line { stroke-width: 0.25pt; stroke: black; }
 .link { color: blue; font-family: Trebuchet MS,Helvetica, sans-serif;
		font-size: 9pt; text-decoration: underline; fill: blue;}
 ]]></style>
</defs>
<text x="400" y="25" class="label title-text">Cross Domain Callflow - Successful Call</text>
<text x="100" y="58" class="label host-text">146.231.126.7:Alice</text>
<line x1="100" y1="60" x2="100" y2="940" class="element-line" />
<text x="300" y="43" class="label host-text">172.17.0.3:Local-Kamailio</text>
<line x1="300" y1="60" x2="300" y2="940" class="element-line" />
<text x="500" y="58" class="label host-text">146.231.121.130:Extern-Kamailio</text>
<line x1="500" y1="60" x2="500" y2="940" class="element-line" />
<text x="700" y="43" class="label host-text">146.231.126.7:Bob</text>
<line x1="700" y1="60" x2="700" y2="940" class="element-line" />
<text x="50" y="84" class="comment-text"> Alice sends an INVITE request for Bob to her Local Kamailio Proxy</text>
<text x="50" y="108" class="pkt-text">1</text>
<line x1="100" y1="108" x2="300" y2="108" class="traceline" style="stroke: black;"/>
<polygon points="300,108 295,105 297,108 295,111" class="arrowhead" style="fill: black; stroke: black;"/>
<a href="frames/Frame1.html" target="_blank">
<text x="110" y="104" class="pkt-text"> INVITE sip:bob@s11pd011-19.ict.ru.ac.za |</text>
</a>
<text x="50" y="132" class="comment-text"> Proxy rejects due to Authentication being required (407). Alice replies with an ACK.</text>
<text x="50" y="156" class="pkt-text">2</text>
<line x1="300" y1="156" x2="100" y2="156" class="traceline" style="stroke: black;"/>
<polygon points="100,156 105,153 103,156 105,159" class="arrowhead" style="fill: black; stroke: black;"/>
<a href="frames/Frame2.html" target="_blank">
<text x="110" y="152" class="pkt-text"> 407 Proxy Authentication Required |</text>
</a>
<text x="50" y="180" class="pkt-text">3</text>
<line x1="100" y1="180" x2="300" y2="180" class="traceline" style="stroke: black;"/>
<polygon points="300,180 295,177 297,180 295,183" class="arrowhead" style="fill: black; stroke: black;"/>
<a href="frames/Frame3.html" target="_blank">
<text x="110" y="176" class="pkt-text"> ACK sip:bob@s11pd011-19.ict.ru.ac.za |</text>
</a>
<text x="50" y="204" class="comment-text"> Alice sends new INVITE request to Local Proxy with Authentication in headers.</text>
<text x="50" y="228" class="pkt-text">4</text>
<line x1="100" y1="228" x2="300" y2="228" class="traceline" style="stroke: black;"/>
<polygon points="300,228 295,225 297,228 295,231" class="arrowhead" style="fill: black; stroke: black;"/>
<a href="frames/Frame4.html" target="_blank">
<text x="110" y="224" class="pkt-text"> INVITE sip:bob@s11pd011-19.ict.ru.ac.za |</text>
</a>
<text x="50" y="252" class="pkt-text">5</text>
<line x1="300" y1="252" x2="100" y2="252" class="traceline" style="stroke: black;"/>
<polygon points="100,252 105,249 103,252 105,255" class="arrowhead" style="fill: black; stroke: black;"/>
<a href="frames/Frame5.html" target="_blank">
<text x="110" y="248" class="pkt-text"> 100 trying -- your call is important to us |</text>
</a>
<text x="50" y="276" class="comment-text"> Proxy determines that the request is outside of it's domain and forwards the request to the proxy at the given address.</text>
<text x="50" y="300" class="pkt-text">6</text>
<line x1="300" y1="300" x2="500" y2="300" class="traceline" style="stroke: black;"/>
<polygon points="500,300 495,297 497,300 495,303" class="arrowhead" style="fill: black; stroke: black;"/>
<a href="frames/Frame6.html" target="_blank">
<text x="310" y="296" class="pkt-text"> INVITE sip:bob@s11pd011-19.ict.ru.ac.za |</text>
</a>
<text x="50" y="324" class="pkt-text">7</text>
<line x1="500" y1="324" x2="300" y2="324" class="traceline" style="stroke: black;"/>
<polygon points="300,324 305,321 303,324 305,327" class="arrowhead" style="fill: black; stroke: black;"/>
<a href="frames/Frame7.html" target="_blank">
<text x="310" y="320" class="pkt-text"> 100 trying -- your call is important to us |</text>
</a>
<text x="50" y="348" class="comment-text"> External Kamailio Proxy looks up the registered user (Bob) and forwards the INVITE to Bob's device.</text>
<text x="50" y="372" class="pkt-text">8</text>
<line x1="500" y1="372" x2="700" y2="372" class="traceline" style="stroke: black;"/>
<polygon points="700,372 695,369 697,372 695,375" class="arrowhead" style="fill: black; stroke: black;"/>
<a href="frames/Frame8.html" target="_blank">
<text x="510" y="368" class="pkt-text"> INVITE sip:bob@146.231.126.7:5063 |</text>
</a>
<text x="50" y="396" class="pkt-text">9</text>
<line x1="700" y1="396" x2="500" y2="396" class="traceline" style="stroke: black;"/>
<polygon points="500,396 505,393 503,396 505,399" class="arrowhead" style="fill: black; stroke: black;"/>
<a href="frames/Frame9.html" target="_blank">
<text x="510" y="392" class="pkt-text"> 100 Trying |</text>
</a>
<text x="50" y="420" class="comment-text"> Bob's device replies that it is attempting to get the attention of the user.</text>
<text x="50" y="444" class="pkt-text">10</text>
<line x1="700" y1="444" x2="500" y2="444" class="traceline" style="stroke: black;"/>
<polygon points="500,444 505,441 503,444 505,447" class="arrowhead" style="fill: black; stroke: black;"/>
<a href="frames/Frame10.html" target="_blank">
<text x="510" y="440" class="pkt-text"> 180 Ringing |</text>
</a>
<text x="50" y="468" class="pkt-text">11</text>
<line x1="500" y1="468" x2="300" y2="468" class="traceline" style="stroke: black;"/>
<polygon points="300,468 305,465 303,468 305,471" class="arrowhead" style="fill: black; stroke: black;"/>
<a href="frames/Frame11.html" target="_blank">
<text x="310" y="464" class="pkt-text"> 180 Ringing |</text>
</a>
<text x="50" y="492" class="pkt-text">12</text>
<line x1="300" y1="492" x2="100" y2="492" class="traceline" style="stroke: black;"/>
<polygon points="100,492 105,489 103,492 105,495" class="arrowhead" style="fill: black; stroke: black;"/>
<a href="frames/Frame12.html" target="_blank">
<text x="110" y="488" class="pkt-text"> 180 Ringing |</text>
</a>
<text x="50" y="516" class="comment-text"> Bob picks his device and accepts the request.</text>
<text x="50" y="540" class="pkt-text">13</text>
<line x1="700" y1="540" x2="500" y2="540" class="traceline" style="stroke: black;"/>
<polygon points="500,540 505,537 503,540 505,543" class="arrowhead" style="fill: black; stroke: black;"/>
<a href="frames/Frame13.html" target="_blank">
<text x="510" y="536" class="pkt-text"> 200 OK |</text>
</a>
<text x="50" y="564" class="pkt-text">14</text>
<line x1="500" y1="564" x2="300" y2="564" class="traceline" style="stroke: black;"/>
<polygon points="300,564 305,561 303,564 305,567" class="arrowhead" style="fill: black; stroke: black;"/>
<a href="frames/Frame14.html" target="_blank">
<text x="310" y="560" class="pkt-text"> 200 OK |</text>
</a>
<text x="50" y="588" class="pkt-text">15</text>
<line x1="300" y1="588" x2="100" y2="588" class="traceline" style="stroke: black;"/>
<polygon points="100,588 105,585 103,588 105,591" class="arrowhead" style="fill: black; stroke: black;"/>
<a href="frames/Frame15.html" target="_blank">
<text x="110" y="584" class="pkt-text"> 200 OK |</text>
</a>
<text x="50" y="612" class="comment-text"> Alice's device acknowledges that it has been notified that Bob has accepted the request.</text>
<text x="50" y="636" class="pkt-text">16</text>
<line x1="100" y1="636" x2="300" y2="636" class="traceline" style="stroke: black;"/>
<polygon points="300,636 295,633 297,636 295,639" class="arrowhead" style="fill: black; stroke: black;"/>
<a href="frames/Frame16.html" target="_blank">
<text x="110" y="632" class="pkt-text"> ACK sip:bob@146.231.126.7:5063 |</text>
</a>
<text x="50" y="660" class="pkt-text">17</text>
<line x1="300" y1="660" x2="500" y2="660" class="traceline" style="stroke: black;"/>
<polygon points="500,660 495,657 497,660 495,663" class="arrowhead" style="fill: black; stroke: black;"/>
<a href="frames/Frame17.html" target="_blank">
<text x="310" y="656" class="pkt-text"> ACK sip:bob@146.231.126.7:5063 |</text>
</a>
<text x="50" y="684" class="pkt-text">18</text>
<line x1="500" y1="684" x2="700" y2="684" class="traceline" style="stroke: black;"/>
<polygon points="700,684 695,681 697,684 695,687" class="arrowhead" style="fill: black; stroke: black;"/>
<a href="frames/Frame18.html" target="_blank">
<text x="510" y="680" class="pkt-text"> ACK sip:bob@146.231.126.7:5063 |</text>
</a>
<text x="50" y="708" class="comment-text"> Conversation happens here.</text>
<text x="50" y="732" class="comment-text"> Bob terminates the session. His device sends a BYE request via his proxy (Extern-Kamailio)</text>
<text x="50" y="756" class="pkt-text">19</text>
<line x1="700" y1="756" x2="500" y2="756" class="traceline" style="stroke: black;"/>
<polygon points="500,756 505,753 503,756 505,759" class="arrowhead" style="fill: black; stroke: black;"/>
<a href="frames/Frame19.html" target="_blank">
<text x="510" y="752" class="pkt-text"> BYE sip:alice@146.231.126.7:5065 |</text>
</a>
<text x="50" y="780" class="pkt-text">20</text>
<line x1="500" y1="780" x2="300" y2="780" class="traceline" style="stroke: black;"/>
<polygon points="300,780 305,777 303,780 305,783" class="arrowhead" style="fill: black; stroke: black;"/>
<a href="frames/Frame20.html" target="_blank">
<text x="310" y="776" class="pkt-text"> BYE sip:alice@146.231.126.7:5065 |</text>
</a>
<text x="50" y="804" class="pkt-text">21</text>
<line x1="300" y1="804" x2="100" y2="804" class="traceline" style="stroke: black;"/>
<polygon points="100,804 105,801 103,804 105,807" class="arrowhead" style="fill: black; stroke: black;"/>
<a href="frames/Frame21.html" target="_blank">
<text x="110" y="800" class="pkt-text"> BYE sip:alice@146.231.126.7:5065 |</text>
</a>
<text x="50" y="828" class="comment-text"> Alice's device acknowledges that she has been notified that Bob has terminated the session.</text>
<text x="50" y="852" class="pkt-text">22</text>
<line x1="100" y1="852" x2="300" y2="852" class="traceline" style="stroke: black;"/>
<polygon points="300,852 295,849 297,852 295,855" class="arrowhead" style="fill: black; stroke: black;"/>
<a href="frames/Frame22.html" target="_blank">
<text x="110" y="848" class="pkt-text"> 200 OK |</text>
</a>
<text x="50" y="876" class="pkt-text">23</text>
<line x1="300" y1="876" x2="500" y2="876" class="traceline" style="stroke: black;"/>
<polygon points="500,876 495,873 497,876 495,879" class="arrowhead" style="fill: black; stroke: black;"/>
<a href="frames/Frame23.html" target="_blank">
<text x="310" y="872" class="pkt-text"> 200 OK |</text>
</a>
<text x="50" y="900" class="pkt-text">24</text>
<line x1="500" y1="900" x2="700" y2="900" class="traceline" style="stroke: black;"/>
<polygon points="700,900 695,897 697,900 695,903" class="arrowhead" style="fill: black; stroke: black;"/>
<a href="frames/Frame24.html" target="_blank">
<text x="510" y="896" class="pkt-text"> 200 OK |</text>
</a>
</svg>
