<?xml version="1.0" encoding="UTF-8" standalone="no"?>
<!DOCTYPE svg PUBLIC "-//W3C//DTD SVG 1.0//EN" "http://www.w3.org/TR/2001/REC-SVG-20010904/DTD/svg10.dtd">
<!-- lookup['146.231.126.7:Alice'] = 0 -->
<!-- lookup['172.17.0.3:Local-Kamailio'] = 1 -->
<svg xmlns="http://www.w3.org/2000/svg" width="400" height="364" viewBox="0 0 400 364">
<defs>
<style type="text/css"><![CDATA[
 .traceline { stroke-width: 1pt; stroke:black; }
 .pkt-text { color: red; font-family: Trebuchet MS,Helvetica, sans-serif;
            font-size: 8pt; stroke: none; fill: black;}
 .comment-text { color: black; font-family: Trebuchet MS,Helvetica, sans-serif;
            font-size: 9pt; font-style: italic; stroke: none; fill: green;}
 .host-text { color: black; font-family: Trebuchet MS,Helvetica,sans-serif;
             font-size: 10pt; stroke:none; fill:blue;}
 .title-text { color: black; font-family: Trebuchet MS,Helvetica,sans-serif;
              font-size:16pt; stroke:none; fill:black;}
 .label { color: blue; text-anchor: middle ; }
 .arrowhead { stroke-width: 0.5pt;stroke:black; }
 .element-line { stroke-width: 0.25pt; stroke: black; }
 .link { color: blue; font-family: Trebuchet MS,Helvetica, sans-serif;
		font-size: 9pt; text-decoration: underline; fill: blue;}
 ]]></style>
</defs>
<text x="200" y="25" class="label title-text">Standard Callflow - Failure</text>
<text x="100" y="58" class="label host-text">146.231.126.7:Alice</text>
<line x1="100" y1="60" x2="100" y2="364" class="element-line" />
<text x="300" y="43" class="label host-text">172.17.0.3:Local-Kamailio</text>
<line x1="300" y1="60" x2="300" y2="364" class="element-line" />
<text x="50" y="84" class="comment-text"> Alice attempts to call Bob; but misspells his username.</text>
<text x="50" y="108" class="pkt-text">1</text>
<line x1="100" y1="108" x2="300" y2="108" class="traceline" style="stroke: black;"/>
<polygon points="300,108 295,105 297,108 295,111" class="arrowhead" style="fill: black; stroke: black;"/>
<a href="frames/Frame1.html" target="_blank">
<text x="110" y="104" class="pkt-text"> INVITE sip:not-bob@rp.rucus.me |</text>
</a>
<text x="50" y="132" class="comment-text"> Proxy requires authentication.</text>
<text x="50" y="156" class="pkt-text">2</text>
<line x1="300" y1="156" x2="100" y2="156" class="traceline" style="stroke: black;"/>
<polygon points="100,156 105,153 103,156 105,159" class="arrowhead" style="fill: black; stroke: black;"/>
<a href="frames/Frame2.html" target="_blank">
<text x="110" y="152" class="pkt-text"> 407 Proxy Authentication Required |</text>
</a>
<text x="50" y="180" class="pkt-text">3</text>
<line x1="100" y1="180" x2="300" y2="180" class="traceline" style="stroke: black;"/>
<polygon points="300,180 295,177 297,180 295,183" class="arrowhead" style="fill: black; stroke: black;"/>
<a href="frames/Frame3.html" target="_blank">
<text x="110" y="176" class="pkt-text"> ACK sip:not-bob@rp.rucus.me |</text>
</a>
<text x="50" y="204" class="comment-text"> Alice resends the request with authentication.</text>
<text x="50" y="228" class="pkt-text">4</text>
<line x1="100" y1="228" x2="300" y2="228" class="traceline" style="stroke: black;"/>
<polygon points="300,228 295,225 297,228 295,231" class="arrowhead" style="fill: black; stroke: black;"/>
<a href="frames/Frame4.html" target="_blank">
<text x="110" y="224" class="pkt-text"> INVITE sip:not-bob@rp.rucus.me |</text>
</a>
<text x="50" y="252" class="comment-text"> Proxy has no such user registered</text>
<text x="50" y="276" class="pkt-text">5</text>
<line x1="300" y1="276" x2="100" y2="276" class="traceline" style="stroke: black;"/>
<polygon points="100,276 105,273 103,276 105,279" class="arrowhead" style="fill: black; stroke: black;"/>
<a href="frames/Frame5.html" target="_blank">
<text x="110" y="272" class="pkt-text"> 404 Not Found |</text>
</a>
<text x="50" y="300" class="comment-text"> Alice acknowledges that no user was found.</text>
<text x="50" y="324" class="pkt-text">6</text>
<line x1="100" y1="324" x2="300" y2="324" class="traceline" style="stroke: black;"/>
<polygon points="300,324 295,321 297,324 295,327" class="arrowhead" style="fill: black; stroke: black;"/>
<a href="frames/Frame6.html" target="_blank">
<text x="110" y="320" class="pkt-text"> ACK sip:not-bob@rp.rucus.me |</text>
</a>
</svg>
